<svg id="图层_1" data-name="图层 1" xmlns="http://www.w3.org/2000/svg" viewBox="0 0 536.13 151.47"><defs><style>.cls-1{fill:#201600;}.cls-2{fill:#a15142;}</style></defs><title>the-international-dota-2-championship-logo-allvectorlogo_com</title><path class="cls-1" d="M127.41,130.45c0,2.22,0,3.82,0,4.22a4.63,4.63,0,0,0,.23,1.58c.27.4,1.08.84,2.73.84a6.68,6.68,0,0,0,4.79-1.5c1.34-1.15,1.76-3.05,1.76-5.19a7.1,7.1,0,0,0-2-5.22A8.3,8.3,0,0,0,129,123.1a5.75,5.75,0,0,0-1.35.14.38.38,0,0,0-.25.42c0,.71,0,2.52,0,4.17Zm-2.61-2.29c0-3.17,0-3.75,0-4.42s-.21-1-.89-1.18a3.73,3.73,0,0,0-.82-.07c-.23,0-.35,0-.35-.19s.14-.19.45-.19c1.11,0,2.42.07,3,.07s2-.07,3.21-.07c2.61,0,6.09,0,8.36,2.38a7.48,7.48,0,0,1,2,5.3,8.28,8.28,0,0,1-2.27,5.82c-1,1-3.12,2.46-7,2.46-.75,0-1.61-.07-2.4-.13s-1.53-.12-2-.12c-.23,0-.68,0-1.19,0s-1,0-1.43,0-.42-.06-.42-.21.08-.17.33-.17a3.42,3.42,0,0,0,.75-.08c.42-.08.53-.54.61-1.14.1-.88.1-2.53.1-4.44Z" transform="translate(-14.7 -14.51)"/><path class="cls-1" d="M159.5,130.4c0-4.68-2.69-7.57-6.11-7.57-2.39,0-5.12,1.33-5.12,6.52,0,4.34,2.39,7.78,6.4,7.78,1.45,0,4.83-.71,4.83-6.73m-14.11-.4c0-3.57,2.35-8.17,8.61-8.17,5.19,0,8.42,3,8.42,7.79a8.24,8.24,0,0,1-8.63,8.55,7.93,7.93,0,0,1-8.4-8.17" transform="translate(-14.7 -14.51)"/><path class="cls-1" d="M172.73,123.28l-3.11.09c-1.21,0-1.71.14-2,.6a2.67,2.67,0,0,0-.35.73c0,.17-.1.25-.22.25s-.2-.1-.2-.33.4-2.23.44-2.4.12-.39.26-.39a5.3,5.3,0,0,0,.89.25c.61.06,1.4.1,2.08.1h8.26a12.41,12.41,0,0,0,1.44-.1,4,4,0,0,1,.56-.11c.15,0,.17.13.17.44s-.06,1.88-.06,2.42c0,.21-.06.33-.19.33s-.21-.11-.23-.42l0-.23c0-.54-.6-1.12-2.46-1.16l-2.63-.07v8.56c0,1.91,0,3.56.11,4.45.06.59.18,1.05.81,1.13a9.11,9.11,0,0,0,1.07.08c.23,0,.33.08.33.17s-.17.21-.4.21c-1.38,0-2.69-.06-3.28-.06s-1.78.06-2.62.06c-.27,0-.42-.06-.42-.21s.09-.17.34-.17a3.57,3.57,0,0,0,.75-.08c.41-.08.54-.54.6-1.15.11-.87.11-2.52.11-4.43Z" transform="translate(-14.7 -14.51)"/><path class="cls-1" d="M191.93,131.39c.11,0,.13-.06.11-.12l-1.88-5.15c0-.08,0-.19-.11-.19s-.1.11-.12.19L188,131.25c0,.08,0,.14.07.14Zm-4.25,1.05c-.11,0-.14,0-.19.17l-1.12,3a4,4,0,0,0-.32,1.27c0,.37.19.65.84.65h.31c.25,0,.31,0,.31.16s-.12.21-.35.21c-.67,0-1.57-.06-2.21-.06-.23,0-1.38.06-2.46.06-.28,0-.4,0-.4-.21s.08-.16.25-.16.48,0,.65,0c1-.13,1.35-.84,1.77-1.88l5.24-13.1c.24-.6.37-.84.58-.84s.31.2.52.67c.5,1.15,3.83,9.66,5.17,12.83.79,1.88,1.4,2.17,1.84,2.27a4,4,0,0,0,.87.09c.16,0,.27,0,.27.16s-.19.21-1,.21-2.27,0-3.94,0c-.37,0-.62,0-.62-.17s.08-.16.29-.18a.36.36,0,0,0,.19-.49l-1.67-4.42a.2.2,0,0,0-.21-.14Z" transform="translate(-14.7 -14.51)"/><path class="cls-1" d="M207,137.82a.31.31,0,0,1-.3-.29c0-.17.21-.36.42-.55,2.91-2.56,7.07-5.82,7.07-10.21,0-3.3-1.81-4-2.86-4a2.93,2.93,0,0,0-2.21.75,3.39,3.39,0,0,0-.88,2c0,.21-.06.39-.27.39s-.17-.14-.19-.39-.12-1.92-.12-2.52c0-.19,0-.27.25-.42a7.85,7.85,0,0,1,3.77-.79c3.67,0,5.24,2,5.24,4.44,0,4-4.49,7.56-7.17,9.71-.11.09-.07.15,0,.15h1.42c.35,0,2.81,0,3.58-.13a2.44,2.44,0,0,0,2.38-1.85c.06-.25.13-.33.25-.33s.17.18.17.39a23.59,23.59,0,0,1-.61,3c-.16.56-.5.63-1.81.63Z" transform="translate(-14.7 -14.51)"/><path class="cls-1" d="M237.37,135.9a8.27,8.27,0,0,1-.14-11.87c1.5-1.38,3.48-2.2,6.59-2.2a18.62,18.62,0,0,1,3,.21c.8.09,1.46.28,2.09.35.23,0,.31.12.31.25s-.06.41-.1,1.15,0,1.83-.06,2.25-.07.48-.26.48-.21-.17-.21-.46a3,3,0,0,0-.81-1.92,6.16,6.16,0,0,0-4.23-1.3,5.47,5.47,0,0,0-3.92,1.3,7,7,0,0,0-1.92,5.4c0,5,3.77,7.43,6.57,7.43,1.86,0,3-.21,3.82-1.17a3.54,3.54,0,0,0,.7-1.38c.07-.33.11-.42.27-.42s.19.15.19.32a18.46,18.46,0,0,1-.46,2.77.75.75,0,0,1-.53.61,12.6,12.6,0,0,1-3.76.48,10.48,10.48,0,0,1-7.16-2.28" transform="translate(-14.7 -14.51)"/><path class="cls-1" d="M267.78,128.75a.14.14,0,0,0,.13-.15v-.44c0-3.16,0-3.75-.05-4.41s-.2-1-.9-1.19a3.48,3.48,0,0,0-.8-.07c-.23,0-.36,0-.36-.19s.15-.19.44-.19c1.12,0,2.44.07,3,.07s1.82-.07,2.63-.07c.29,0,.43,0,.43.19s-.12.19-.37.19a3,3,0,0,0-.6.07c-.56.09-.74.45-.78,1.19s0,1.25,0,4.41v3.67c0,1.92,0,3.57.11,4.46.06.59.18,1.05.81,1.13a7.33,7.33,0,0,0,1.06.09c.23,0,.34.06.34.16s-.17.21-.42.21c-1.35,0-2.67-.06-3.25-.06s-1.8.06-2.61.06c-.29,0-.44-.06-.44-.21s.09-.16.34-.16a3,3,0,0,0,.75-.09c.41-.08.51-.54.6-1.14.11-.88.11-2.53.11-4.45V130a.13.13,0,0,0-.13-.13h-8c-.06,0-.12,0-.12.13v1.83c0,1.92,0,3.57.11,4.46.06.59.18,1.05.81,1.13a7.33,7.33,0,0,0,1.06.09c.23,0,.33.06.33.16s-.16.21-.41.21c-1.36,0-2.67-.06-3.25-.06s-1.8.06-2.63.06c-.28,0-.42-.06-.42-.21s.08-.16.33-.16a2.83,2.83,0,0,0,.75-.09c.42-.08.53-.54.61-1.14.1-.88.1-2.53.1-4.45v-3.67c0-3.16,0-3.75,0-4.41s-.21-1-.89-1.19a3.73,3.73,0,0,0-.82-.07c-.23,0-.35,0-.35-.19s.14-.19.43-.19c1.13,0,2.45.07,3,.07s1.82-.07,2.63-.07c.3,0,.44,0,.44.19s-.12.19-.37.19a3.07,3.07,0,0,0-.61.07c-.56.09-.73.45-.77,1.19s0,1.25,0,4.41v.44c0,.1.06.15.12.15Z" transform="translate(-14.7 -14.51)"/><path class="cls-1" d="M285.78,131.39c.1,0,.13-.06.1-.12L284,126.12c0-.08,0-.19-.1-.19s-.1.11-.13.19l-1.91,5.13c0,.08,0,.14.08.14Zm-4.26,1.05c-.1,0-.14,0-.18.17l-1.13,3a4,4,0,0,0-.31,1.27c0,.37.19.65.83.65h.32c.25,0,.31,0,.31.16s-.13.21-.36.21c-.66,0-1.56-.06-2.2-.06-.24,0-1.39.06-2.46.06-.28,0-.4,0-.4-.21s.08-.16.24-.16.48,0,.65,0c1-.13,1.36-.84,1.78-1.88l5.23-13.1c.25-.6.37-.84.58-.84s.31.2.53.67c.49,1.15,3.83,9.66,5.17,12.83.79,1.88,1.4,2.17,1.83,2.27a4.17,4.17,0,0,0,.88.09c.16,0,.27,0,.27.16s-.19.21-1,.21-2.27,0-3.94,0c-.38,0-.63,0-.63-.17s.09-.16.3-.18a.35.35,0,0,0,.18-.49l-1.66-4.42a.21.21,0,0,0-.21-.14Z" transform="translate(-14.7 -14.51)"/><path class="cls-1" d="M299.82,122.2c.05-.35.18-.54.35-.54s.29.1.56.64l5.7,11.77,5.67-11.91c.17-.33.27-.5.45-.5s.31.21.38.64l1.9,12.89c.18,1.31.39,1.92,1,2.11a4,4,0,0,0,1.29.2c.19,0,.33,0,.33.15s-.24.23-.54.23c-.52,0-3.39-.06-4.23-.13-.48,0-.6-.1-.6-.22s.08-.17.22-.23.19-.32.11-.9l-1.25-9.18h-.09l-4.54,9.47c-.48,1-.59,1.17-.77,1.17s-.4-.42-.73-1c-.5-1-2.15-4.15-2.4-4.74-.19-.43-1.44-3.06-2.17-4.63h-.09l-1.07,8.3a7,7,0,0,0-.07,1c0,.4.27.59.62.67a3.7,3.7,0,0,0,.88.1c.17,0,.31.05.31.15s-.19.23-.49.23c-.88,0-1.82-.06-2.2-.06s-1.39.06-2.06.06c-.21,0-.37,0-.37-.23s.13-.15.33-.15a2.72,2.72,0,0,0,.62-.06c.59-.12.76-.94.86-1.64Z" transform="translate(-14.7 -14.51)"/><path class="cls-1" d="M324.13,128.16c0-3.17,0-3.75,0-4.42s-.21-1-.89-1.18a3.73,3.73,0,0,0-.82-.07c-.23,0-.36,0-.36-.19s.15-.19.46-.19c1.11,0,2.42.07,3,.07.85,0,2.06-.07,3-.07,2.61,0,3.54.88,3.88,1.2a3.59,3.59,0,0,1,1,2.48,4.91,4.91,0,0,1-5.13,5,3.31,3.31,0,0,1-.44,0c-.1,0-.25,0-.25-.19s.15-.22.59-.22A3.29,3.29,0,0,0,331,127a4,4,0,0,0-1.23-3.13,3.07,3.07,0,0,0-2.08-.81,3.15,3.15,0,0,0-.82.08c-.1,0-.16.16-.16.39v8.35c0,1.91,0,3.56.1,4.45.06.59.19,1.05.81,1.13a9.28,9.28,0,0,0,1.07.08c.23,0,.33.07.33.17s-.17.21-.4.21c-1.37,0-2.68-.06-3.23-.06s-1.79.06-2.62.06c-.28,0-.42-.06-.42-.21s.08-.17.33-.17a3.57,3.57,0,0,0,.75-.08c.42-.08.53-.54.6-1.14.11-.88.11-2.53.11-4.44Z" transform="translate(-14.7 -14.51)"/><path class="cls-1" d="M341.12,128.16c0-3.17,0-3.75,0-4.42s-.25-1.06-.72-1.16a2.62,2.62,0,0,0-.75-.09c-.2,0-.33,0-.33-.2s.17-.18.5-.18c.8,0,2.11.07,2.71.07s1.75-.07,2.55-.07c.27,0,.43,0,.43.18s-.12.2-.33.2a3,3,0,0,0-.63.07c-.56.09-.72.46-.77,1.18s0,1.25,0,4.42v3.68c0,2,0,3.66.09,4.56.06.57.21.94.83,1a9.28,9.28,0,0,0,1.07.08c.22,0,.33.07.33.17s-.17.21-.4.21c-1.38,0-2.69-.06-3.26-.06s-1.78.06-2.62.06c-.27,0-.41-.06-.41-.21s.08-.17.33-.17a3.57,3.57,0,0,0,.75-.08c.42-.08.54-.44.6-1,.1-.88.1-2.52.1-4.54Z" transform="translate(-14.7 -14.51)"/><path class="cls-1" d="M365.52,130.4c0-4.68-2.68-7.57-6.1-7.57-2.4,0-5.13,1.33-5.13,6.52,0,4.34,2.39,7.78,6.4,7.78,1.45,0,4.83-.71,4.83-6.73m-14.11-.4c0-3.57,2.36-8.17,8.61-8.17,5.19,0,8.43,3,8.43,7.79a8.24,8.24,0,0,1-8.64,8.55,7.93,7.93,0,0,1-8.4-8.17" transform="translate(-14.7 -14.51)"/><path class="cls-1" d="M377.31,135.05c.05,1.62.31,2.16.73,2.31a3.18,3.18,0,0,0,1.08.14c.24,0,.36.05.36.17s-.19.21-.48.21c-1.35,0-2.18-.06-2.58-.06-.19,0-1.17.06-2.26.06-.27,0-.46,0-.46-.21s.13-.17.33-.17a3.49,3.49,0,0,0,1-.1c.54-.17.62-.77.64-2.58l.19-12.35c0-.41.06-.71.27-.71s.42.27.77.65,3.42,3.67,6.47,6.7c1.41,1.41,4.23,4.41,4.58,4.75H388l-.21-9.37c0-1.27-.2-1.66-.71-1.87a3.28,3.28,0,0,0-1.11-.13c-.25,0-.33-.06-.33-.19s.22-.19.55-.19c1.07,0,2.08.07,2.52.07.23,0,1-.07,2-.07.27,0,.48,0,.48.19s-.13.19-.37.19a2.06,2.06,0,0,0-.63.07c-.59.16-.75.6-.77,1.77l-.23,13.16c0,.45-.08.64-.27.64s-.48-.23-.71-.46c-1.31-1.25-4-4-6.16-6.13s-4.58-4.86-5-5.25h-.05Z" transform="translate(-14.7 -14.51)"/><path class="cls-1" d="M398.09,137.63c-.34-.14-.4-.25-.4-.71,0-1.15.08-2.4.1-2.73s.08-.54.25-.54.21.19.21.35a4.25,4.25,0,0,0,.19,1.07,2.86,2.86,0,0,0,3,2.1,2.53,2.53,0,0,0,2.79-2.38c0-1-.31-2-2-3.33l-1-.75c-2.29-1.8-3.09-3.26-3.09-5,0-2.29,1.92-3.93,4.83-3.93a9.82,9.82,0,0,1,2.76.35c.19,0,.29.1.29.25s-.07.87-.07,2.5c0,.46-.07.63-.24.63s-.21-.13-.21-.38a2.61,2.61,0,0,0-.54-1.38,2.67,2.67,0,0,0-2.27-1,2.19,2.19,0,0,0-2.48,2.15c0,1,.48,1.69,2.21,3l.58.44c2.52,1.9,3.43,3.34,3.43,5.32a4.21,4.21,0,0,1-2,3.63,6.16,6.16,0,0,1-3.33.85,7.26,7.26,0,0,1-3-.54" transform="translate(-14.7 -14.51)"/><path class="cls-1" d="M425.4,128.75c.06,0,.12-.05.12-.15v-.44c0-3.16,0-3.75,0-4.41s-.21-1-.9-1.19a3.52,3.52,0,0,0-.81-.07c-.22,0-.35,0-.35-.19s.14-.19.44-.19c1.12,0,2.44.07,3,.07s1.81-.07,2.62-.07c.3,0,.45,0,.45.19s-.13.19-.38.19a3.06,3.06,0,0,0-.6.07c-.57.09-.74.45-.78,1.19s0,1.25,0,4.41v3.67c0,1.92,0,3.57.11,4.46.06.59.19,1.05.81,1.13a7.33,7.33,0,0,0,1.06.09c.24,0,.34.06.34.16s-.17.21-.43.21c-1.35,0-2.66-.06-3.25-.06s-1.79.06-2.6.06c-.29,0-.44-.06-.44-.21s.09-.16.34-.16a3,3,0,0,0,.75-.09c.41-.08.52-.54.59-1.14.11-.88.11-2.53.11-4.45V130a.12.12,0,0,0-.12-.13h-8a.12.12,0,0,0-.13.13v1.83c0,1.92,0,3.57.11,4.46.07.59.19,1.05.82,1.13a7.33,7.33,0,0,0,1.06.09c.23,0,.33.06.33.16s-.16.21-.41.21c-1.35,0-2.67-.06-3.25-.06s-1.8.06-2.63.06c-.28,0-.42-.06-.42-.21s.08-.16.33-.16a3,3,0,0,0,.75-.09c.42-.08.53-.54.61-1.14.1-.88.1-2.53.1-4.45v-3.67c0-3.16,0-3.75,0-4.41s-.21-1-.89-1.19a3.73,3.73,0,0,0-.82-.07c-.23,0-.36,0-.36-.19s.16-.19.44-.19c1.13,0,2.45.07,3,.07s1.83-.07,2.63-.07c.3,0,.44,0,.44.19s-.12.19-.37.19a3.07,3.07,0,0,0-.61.07c-.57.09-.73.45-.77,1.19s-.05,1.25-.05,4.41v.44a.14.14,0,0,0,.13.15Z" transform="translate(-14.7 -14.51)"/><path class="cls-1" d="M438.31,128.16c0-3.17,0-3.75,0-4.42s-.26-1.06-.71-1.16a2.7,2.7,0,0,0-.75-.09c-.21,0-.33,0-.33-.2s.16-.18.5-.18c.79,0,2.11.07,2.71.07s1.74-.07,2.54-.07c.27,0,.43,0,.43.18s-.11.2-.32.2a2.89,2.89,0,0,0-.63.07c-.56.09-.73.46-.77,1.18s-.05,1.25-.05,4.42v3.68c0,2,0,3.66.09,4.56.06.57.21.94.83,1a9.28,9.28,0,0,0,1.06.08c.23,0,.34.07.34.17s-.16.21-.39.21c-1.39,0-2.7-.06-3.26-.06s-1.79.06-2.63.06c-.27,0-.42-.06-.42-.21s.09-.17.34-.17a3.5,3.5,0,0,0,.75-.08c.41-.08.54-.44.61-1,.1-.88.1-2.52.1-4.54Z" transform="translate(-14.7 -14.51)"/><path class="cls-1" d="M451.07,128.16c0-3.17,0-3.75,0-4.42s-.21-1-.89-1.18a3.79,3.79,0,0,0-.82-.07c-.23,0-.35,0-.35-.19s.14-.19.46-.19c1.1,0,2.41.07,3,.07.85,0,2.06-.07,3-.07,2.6,0,3.55.88,3.88,1.2a3.59,3.59,0,0,1,1,2.48,4.91,4.91,0,0,1-5.13,5,3.31,3.31,0,0,1-.44,0c-.1,0-.25,0-.25-.19s.15-.22.59-.22a3.29,3.29,0,0,0,2.79-3.44,4,4,0,0,0-1.23-3.13,3.07,3.07,0,0,0-2.08-.81,3.15,3.15,0,0,0-.82.08c-.1,0-.17.16-.17.39v8.35c0,1.91,0,3.56.11,4.45.06.59.19,1.05.81,1.13a9.11,9.11,0,0,0,1.07.08c.23,0,.33.07.33.17s-.16.21-.4.21c-1.37,0-2.68-.06-3.23-.06s-1.79.06-2.62.06c-.27,0-.42-.06-.42-.21s.08-.17.33-.17a3.42,3.42,0,0,0,.75-.08c.42-.08.53-.54.61-1.14.1-.88.1-2.53.1-4.44Z" transform="translate(-14.7 -14.51)"/><path class="cls-1" d="M467,137.63c-.34-.14-.4-.25-.4-.71,0-1.15.08-2.4.1-2.73s.09-.54.25-.54.21.19.21.35a4.75,4.75,0,0,0,.19,1.07,2.87,2.87,0,0,0,3,2.1,2.54,2.54,0,0,0,2.8-2.38c0-1-.32-2-2.05-3.33l-.95-.75c-2.3-1.8-3.09-3.26-3.09-5,0-2.29,1.91-3.93,4.82-3.93a10,10,0,0,1,2.77.35c.18,0,.29.1.29.25s-.08.87-.08,2.5c0,.46-.06.63-.23.63s-.21-.13-.21-.38a2.56,2.56,0,0,0-.55-1.38,2.63,2.63,0,0,0-2.26-1,2.2,2.2,0,0,0-2.49,2.15c0,1,.48,1.69,2.21,3l.59.44c2.52,1.9,3.42,3.34,3.42,5.32a4.21,4.21,0,0,1-2,3.63,6.1,6.1,0,0,1-3.32.85,7.28,7.28,0,0,1-3-.54" transform="translate(-14.7 -14.51)"/><path class="cls-1" d="M221.16,122h.22c.07,0,.09,0,.11,0s0,0,0,.13,0,.35,0,.39,0,.16-.08.16-.06,0-.06-.2,0-.15-.34-.15h-.37v1.36a5.41,5.41,0,0,0,0,.69c0,.11.06.21.16.21h.09c.08,0,.1,0,.1.06s0,.07-.1.07l-.52,0-.57,0a.09.09,0,0,1-.1-.07s0-.06.1-.06H220c.14,0,.14-.13.17-.21s0-.31,0-.69v-1.36h-.44c-.23,0-.33.08-.36.19s0,.12-.08.12,0,0,0-.12.08-.4.08-.47a.11.11,0,0,1,0-.08l.15,0a1.21,1.21,0,0,0,.29,0Z" transform="translate(-14.7 -14.51)"/><path class="cls-1" d="M222.27,122c0-.07,0-.15.07-.15s.09,0,.13.1l1,1.9,1-1.92a.09.09,0,0,1,.1-.08s.06.06.09.12l.33,2.16c0,.27.1.34.21.34h.08c.06,0,.06,0,.06.06s0,.07-.08.07-.6,0-.69,0a.07.07,0,0,1-.08-.08l-.21-1.51h0l-.75,1.43c-.06.12-.08.18-.15.18s-.1-.1-.14-.18l-.75-1.49h0l-.14,1.32v.15s0,.1.07.1h.09q.09,0,.09.06s0,.07-.07.07l-.41,0c-.09,0-.22,0-.34,0a.08.08,0,0,1-.08-.07s0-.06.1-.06h.06c.06,0,.11-.07.13-.25Z" transform="translate(-14.7 -14.51)"/><polygon class="cls-2" points="233.82 141.63 228.65 145.37 230.61 151.47 225.48 147.69 220.32 151.47 222.29 145.37 217.13 141.63 223.49 141.63 225.45 135.58 227.45 141.63 233.82 141.63"/><polygon class="cls-2" points="263.24 141.63 258.08 145.37 260.04 151.47 254.91 147.69 249.75 151.47 251.71 145.37 246.55 141.63 252.92 141.63 254.87 135.58 256.87 141.63 263.24 141.63"/><polygon class="cls-2" points="292.66 141.63 287.5 145.37 289.46 151.47 284.33 147.69 279.18 151.47 281.14 145.37 275.98 141.63 282.34 141.63 284.3 135.58 286.3 141.63 292.66 141.63"/><polygon class="cls-2" points="322.09 141.63 316.93 145.37 318.88 151.47 313.76 147.69 308.61 151.47 310.56 145.37 305.4 141.63 311.77 141.63 313.72 135.58 315.72 141.63 322.09 141.63"/><polygon class="cls-2" points="351.51 141.63 346.36 145.37 348.31 151.47 343.18 147.69 338.03 151.47 339.99 145.37 334.82 141.63 341.19 141.63 343.14 135.58 345.15 141.63 351.51 141.63"/><path class="cls-1" d="M428.4,76.43a5.24,5.24,0,0,0,.44-.56l-.44.56" transform="translate(-14.7 -14.51)"/><path class="cls-1" d="M150.37,22.76l-4.08,1q-2.22.6-6.48,1.62-14.62,3.48-23.29,10.22c-5.78,4.5-8.67,9.35-8.67,14.59q0,7.55,7.38,10.67,15.88-25.35,35.14-38.06m18-7.64c0,.68-1.65,1.76-4.95,3.22a80.41,80.41,0,0,1-11.3,3.95q-14.94,10.65-29.57,38l-1,1.8a9.32,9.32,0,0,0,1.68.12,22.4,22.4,0,0,0,13.49-4.5q6.19-4.48,7.5-10.85.24-1,.66-1t.36.48c0,2.44-1.31,5.22-4,8.34a22.68,22.68,0,0,1-18.29,8.52,15.74,15.74,0,0,1-2.09-.13l-1.69,3.3a75.84,75.84,0,0,1-7.73,12.48,42.73,42.73,0,0,1-8.52,7.67Q88,97.28,72.22,97.28q-8.81,0-14.54-3.72C53.87,91.08,52,87.9,52,84a8.12,8.12,0,0,1,1.78-5.3A5.31,5.31,0,0,1,58,76.53c2.6,0,3.9,1.35,3.9,4.08A4.77,4.77,0,0,1,60.62,84a4.17,4.17,0,0,1-3.15,1.37c-1.88,0-2.82-.89-2.82-2.7V81.45c0-.37-.11-.57-.35-.61-.73,0-1.09,1-1.09,3.06q0,5.16,5,8.68a21.56,21.56,0,0,0,12.54,3.5q18,0,32.5-18,4.26-5.34,11.46-16.49-10.2-4.44-10.2-14.34,0-12,13.5-17.81,6.83-3,21.52-5.46l6.6-1.08,5.64-1.2a48,48,0,0,1,8.43-4.76c3.46-1.58,5.84-2.38,7.16-2.38.68,0,1,.21,1,.61" transform="translate(-14.7 -14.51)"/><path class="cls-1" d="M389.25,48a5.8,5.8,0,0,0-4.08,1.91,5.56,5.56,0,0,0-1.94,4,2.64,2.64,0,0,0,3,3A5.57,5.57,0,0,0,390.25,55a5.89,5.89,0,0,0,1.84-4.11A2.54,2.54,0,0,0,389.25,48" transform="translate(-14.7 -14.51)"/><path class="cls-1" d="M84.8,19.11a36.21,36.21,0,0,0-14.42,3.27c-5.92-1.22-9.69-2-11.23-2.2a52.4,52.4,0,0,0-15-.24c-6.33,1-12.5,2.65-16.8,9.55-1.08,1.73-2.85,6.66-.79,11.06,2.26,4.85,5.84,5,7.48,5.08,1.82,0,6.1,0,8.82-4,2.42-3.5.69-6.62-1-7.52s-4-.18-4.7.12l-.09,0-.07,0h0c.16,0,2.91-.06,3.78,1.19A6,6,0,0,1,39.9,42,7.5,7.5,0,0,1,34,44.56a8.16,8.16,0,0,1-6.56-4.63A11.15,11.15,0,0,1,29.2,28.65c5.32-6.57,14.94-6.56,18.65-6.55h.7a63.3,63.3,0,0,1,12.57,1.78c2,.44,3.53.76,4.67,1-5.89,3-11.61,9-17,17.81a91.72,91.72,0,0,1-8.35,12.07C35.88,59.88,30.69,62.5,25,62.5c-.38,0-.76,0-1.13,0a11,11,0,0,1-5.42-1.74,5.1,5.1,0,0,1-2.62-4.28c0-1,.18-1.4.32-1.4s.09.09.09.58A1.53,1.53,0,0,0,18,57.32a2.21,2.21,0,0,0,1.73-.82,2.83,2.83,0,0,0,.7-1.91,2.11,2.11,0,0,0-2.3-2.41,3,3,0,0,0-2.39,1.22,4.3,4.3,0,0,0-1,2.85,6.17,6.17,0,0,0,3.05,5.29,13.89,13.89,0,0,0,7.75,2c5.85,0,11.57-2,17-6.07a23,23,0,0,0,4.89-4.86,95.63,95.63,0,0,0,5.58-10,66.34,66.34,0,0,1,7.07-11.5,23.46,23.46,0,0,1,7.18-6,72.15,72.15,0,0,0,12.61,1.38,26.49,26.49,0,0,0,8.63-1.23c2.45-.85,3.63-1.88,3.63-3.15,0-2-2.39-3-7.3-3m4.63,4.61a12.43,12.43,0,0,1-4.43.71,49.41,49.41,0,0,1-9.17-1c-1.69-.32-2.91-.53-3.67-.67a32.45,32.45,0,0,1,12.77-2.64,14,14,0,0,1,4.56.64,3.56,3.56,0,0,1,1.46.83.85.85,0,0,1,.24.58c0,.58-.59,1.09-1.76,1.55" transform="translate(-14.7 -14.51)"/><path class="cls-1" d="M63,28.09H60.84A50.23,50.23,0,0,0,51.62,38.3c-.95,1.36-1.91,2.81-2.85,4.35-.35.59-.7,1.16-1,1.71v7.77c.94-1.41,2.24-3.71,3.89-6.86.43-.81.88-1.69,1.36-2.62a66.73,66.73,0,0,1,7.07-11.5A28.39,28.39,0,0,1,63,28.09" transform="translate(-14.7 -14.51)"/><path class="cls-1" d="M83.71,47.23c1.83-1.55,3.31-2.33,4.4-2.33.64,0,.94.26.94.84,0,1.22-1.06,2.55-3.16,4a24.51,24.51,0,0,1-7.32,3.22,33.5,33.5,0,0,1,5.14-5.7m8.2,4.14h0c-.25,0-.51.19-.81.6-4.89,6.58-9.06,9.93-12.41,9.93-1.89,0-2.81-.86-2.81-2.6A10.62,10.62,0,0,1,78,53.9h0c4.71-.94,8.12-2,10.15-3.07s3.15-2.52,3.15-4.14a2.32,2.32,0,0,0-.9-1.85,2.61,2.61,0,0,0-.51-.36h0a.23.23,0,0,0-.1,0h0a3.38,3.38,0,0,0-1.47-.33c-1.82,0-4.19.8-7.06,2.36-3.64,2-6.08,4.21-7.31,6.62l-.56.79c-3.32,4.65-5.85,7.32-7.51,8l-.09,0-.07,0a1.45,1.45,0,0,1-.52.1h0a1,1,0,0,1-1.2-1.2c0-.51.55-2,3.15-5.79,1.94-2.86,2.89-5,2.89-6.56a4.69,4.69,0,0,0-1-3,3.83,3.83,0,0,0-1-.88,3,3,0,0,0-1.51-.39l-.39,0h0c-1.82.23-4,2-6.7,5.39,1.69-2.81,2.58-4.28,2.67-4.44,4.42-7.14,7.8-12.6,10-16.21l.27-.42-.49.12a8.81,8.81,0,0,1-2.37.33h0a8.17,8.17,0,0,1-1.61-.2l-.14,0-5,8.49c-3.66,6.23-5.88,10-6.59,11.15-1.33,2.39-2.33,4.22-3,5.45l-4.95,9,.39,0c.5-.09.93-.14,1.3-.17l.59,0a9.08,9.08,0,0,1,1.61.19l.14,0,.07-.13c3.77-6.77,6.75-11.42,8.89-13.84S65,45,66.23,45c.77,0,1.13.34,1.13,1.07A3.19,3.19,0,0,1,67,47.18h0a52.77,52.77,0,0,1-3.4,5.47c-1.66,2.47-2.5,4.5-2.5,6.05a4.29,4.29,0,0,0,1,2.94,3.49,3.49,0,0,0,2.7,1.18c1.91,0,4.62-2.36,8.27-7.22a7.84,7.84,0,0,0-.1,1.29,6,6,0,0,0,1.59,4.23,5.27,5.27,0,0,0,4,1.7c3.25,0,7.19-2.82,11.68-8.36l1.4-1.75c.63-.8.63-.88.63-1a.37.37,0,0,0-.28-.38" transform="translate(-14.7 -14.51)"/><path class="cls-1" d="M389.25,48a5.8,5.8,0,0,0-4.08,1.91,5.56,5.56,0,0,0-1.94,4,2.64,2.64,0,0,0,3,3A5.57,5.57,0,0,0,390.25,55a5.89,5.89,0,0,0,1.84-4.11A2.54,2.54,0,0,0,389.25,48" transform="translate(-14.7 -14.51)"/><path class="cls-1" d="M493.57,81.05c-6.71,9-11.47,13.63-14.12,13.63-2.17,0-3.22-1.19-3.22-3.64,0-4.35,3-10.17,8.91-17.28s10.7-10.7,14.28-10.7c1.66,0,2.44.84,2.44,2.67,0,2.73-2.79,7.88-8.29,15.32m-82-7.08a10.44,10.44,0,0,0-2.39,6.22,6.1,6.1,0,0,0,1.66,4c-5,6.9-9.64,10.39-13.82,10.39-2.48,0-3.69-1.26-3.69-3.87,0-4.68,2.62-10.53,7.81-17.41s9.56-10.34,13.1-10.34c2.76,0,4.11,1.51,4.11,4.6a11.2,11.2,0,0,1-.69,4,1.47,1.47,0,0,0-1.32-.78c-1.56,0-3.17,1.08-4.77,3.22m-84.8,7.08c-6.71,9-11.47,13.63-14.13,13.63-2.16,0-3.21-1.19-3.21-3.64,0-4.35,3-10.18,8.91-17.28s10.7-10.7,14.27-10.7c1.66,0,2.44.84,2.44,2.67,0,2.73-2.79,7.88-8.28,15.32M212.12,67.29c3.39-2.89,6.15-4.36,8.19-4.36,1.25,0,1.84.54,1.84,1.66,0,2.3-2,4.8-5.89,7.43a46.2,46.2,0,0,1-13.84,6,60.07,60.07,0,0,1,9.7-10.78m338.32-34,.39-.66-.71.28a11.76,11.76,0,0,1-4.1.69,11.93,11.93,0,0,1-3.11-.47l-.2,0-.1.18c-4.94,8.8-11.09,19.32-18.29,31.3-.88,1.46-1.7,2.85-2.48,4.14h0l0,0-5,7.87a101.7,101.7,0,0,1-10.13,12.64c-3.45,3.59-6,5.42-7.5,5.42s-2.08-.82-2.08-2.56c0-1.9,1.85-6,5.48-12L513.49,62l-.56.09a27,27,0,0,1-4.15.42,13.73,13.73,0,0,1-3.12-.42l-.2,0-2.25,4.26a5.37,5.37,0,0,0,.08-.83c0-2.57-1.34-3.87-4-3.87-2.95,0-6.87,1.35-11.64,4-7.44,4.06-12.37,8.6-14.75,13.53-7.38,10.31-12.7,15.53-15.83,15.53a1.91,1.91,0,0,1-2.19-2.2c0-1.49,1.87-5.08,5.59-10.65S466,72.11,466,69.39a8.34,8.34,0,0,0-1.86-5.5,5.84,5.84,0,0,0-4.64-2.26c-2.22,0-4.65,1.23-7.23,3.67a81.76,81.76,0,0,0-7.92,9.35,15.17,15.17,0,0,0,2-6.46,7.34,7.34,0,0,0-1.5-4.6,4.54,4.54,0,0,0-3.69-2c-2.23,0-6.34,4.07-12.59,12.43l-.48.64-.41.54c-.32.41-.75,1-.94,1.19s-.72.88-1,1.22l-.22.27A21.5,21.5,0,0,1,421.08,82c-2.36,1.64-4.42,2.47-6.16,2.47a5,5,0,0,1-2.31-.54c4.73-6.39,7.13-12,7.13-16.52,0-3.84-1.83-5.79-5.42-5.79s-8.49,2-14.19,6.11a39.23,39.23,0,0,0-7.75,7l-.32.4-.72.89c-8.78,12.39-15,18.68-18.39,18.68-1.75,0-2.57-.78-2.57-2.43s1-4.19,2.9-7.37L387.19,62l-.56.07a34.07,34.07,0,0,1-4.52.42,13.73,13.73,0,0,1-2.88-.42l-.19,0-7.79,13.25a2.68,2.68,0,0,0-.36.42c-8.56,12.56-14.69,18.93-18.22,18.93-1.75,0-2.56-.78-2.56-2.43s.81-3.77,2.43-6.47l13.28-22.72h7.88l.75-1.43h-7.83l7-11.8L373,50a12.9,12.9,0,0,1-3.41.47,12.73,12.73,0,0,1-3.34-.47L366,50,359,61.63h-6l-.95,1.43h6.15l-7.28,12.23h0a2.3,2.3,0,0,0-.36.46,102.45,102.45,0,0,1-10.71,13.51c-3.46,3.59-6,5.42-7.5,5.42s-2.08-.82-2.08-2.56c0-1.9,1.84-5.94,5.49-12L346.65,62l-.56.09a26.85,26.85,0,0,1-4.16.42,13.8,13.8,0,0,1-3.12-.42l-.2,0-2.24,4.26a6.78,6.78,0,0,0,.07-.83c0-2.57-1.35-3.87-4-3.87-2.95,0-6.86,1.35-11.63,4-7.45,4.06-12.37,8.6-14.75,13.53-7.38,10.31-12.7,15.53-15.83,15.53a1.92,1.92,0,0,1-2.2-2.2c0-1.49,1.88-5.08,5.6-10.65s5.56-9.72,5.56-12.44a8.34,8.34,0,0,0-1.86-5.5,5.84,5.84,0,0,0-4.64-2.26c-2.23,0-4.66,1.23-7.24,3.67a83,83,0,0,0-7.91,9.35,15,15,0,0,0,2-6.46,7.33,7.33,0,0,0-1.51-4.6,4.54,4.54,0,0,0-3.69-2c-2.23,0-6.34,4.07-12.58,12.43l-.27.37h0s-.1.12-.21.28l-.39.5s-1.43,1.78-2,2.36c-.24.26-.78.86-1.25,1.4l0,0c-.26.32-.54.62-.81.91l-.11.12q-3.81,4.1-7.13,4.1c-2.37,0-3.52-1.56-3.52-4.78a15.85,15.85,0,0,1,.81-4.4l.62-.53c1.76-1.07,3.1-1.9,4-2.46,5.69-3.65,8.46-6.4,8.46-8.43,0-.87-.37-1.89-2.12-1.89s-4,1.23-6.27,3.69a30.15,30.15,0,0,0-5.7,8.94,41.49,41.49,0,0,0-4,3.78c2.31-4,3.48-7.36,3.48-10,0-4.27-1.7-6.44-5.07-6.44-2.31,0-6.48,4.07-12.76,12.43l-1,1.43h0a7,7,0,0,0-.59.66c-9.06,12.21-16.81,18.4-23,18.4-3.58,0-5.31-1.59-5.31-4.88,0-2.68,1.33-6.07,4-10.09,8.72-1.75,15-3.65,18.79-5.66S226,69.31,226,66.33A4.27,4.27,0,0,0,224.41,63a5.83,5.83,0,0,0-3.87-1.35c-3.34,0-7.72,1.46-13,4.35-7.15,3.89-11.8,8.29-13.9,13.1-7.34,10.36-12.69,15.6-15.9,15.6-1.74,0-2.56-.78-2.56-2.43s.82-3.77,2.42-6.47l13.3-22.72h7.86l.77-1.43h-7.84l7-11.8-.62.17a13,13,0,0,1-3.41.47,12.75,12.75,0,0,1-3.35-.47l-.2,0-7,11.67h-6l-.94,1.43h6.14l-8.2,13.75c-8.24,11.86-14.13,17.87-17.48,17.87a1.92,1.92,0,0,1-2.2-2.2c0-1.49,1.89-5.08,5.59-10.65s5.56-9.72,5.56-12.44a8.29,8.29,0,0,0-1.86-5.5A5.81,5.81,0,0,0,160,61.63c-2.23,0-4.66,1.23-7.23,3.67a81.76,81.76,0,0,0-7.92,9.35,15.17,15.17,0,0,0,2-6.46,7.36,7.36,0,0,0-1.5-4.6,4.56,4.56,0,0,0-3.7-2c-2.23,0-6.35,4.07-12.58,12.43L128,75.54a1.09,1.09,0,0,0-.32.61v.09a.61.61,0,0,0,.62.59h.05c.29-.06.59-.35,1-.95,7.38-10.59,10.53-12.81,11.86-12.81.53,0,1.24.16,1.24,1.53,0,2.06-2.67,7.36-7.94,15.75l-9.65,15.29.55-.07a30.67,30.67,0,0,1,3.93-.23c.39,0,1.54.07,3.51.23l.18,0,.07-.15C145.15,74,154.15,63.06,159.85,63.06c1.59,0,2.32.69,2.32,2.19,0,1.26-1.62,4.29-4.81,9a89.47,89.47,0,0,0-5.81,9.19,11.56,11.56,0,0,0-1.14,5.11,7.84,7.84,0,0,0,1.9,5.33,6,6,0,0,0,4.74,2.19c2.83,0,6.56-2.82,11.43-8.62l2.66-3.22a12.93,12.93,0,0,0-.94,4.44,7.51,7.51,0,0,0,2,5.28,6.41,6.41,0,0,0,4.9,2.12c3.63,0,8.71-4.39,15.48-13.42a15.27,15.27,0,0,0-.21,2.54A11,11,0,0,0,195.26,93a9.59,9.59,0,0,0,7.24,3.1c6,0,13.22-5.19,21.52-15.42l2.58-3.24c.49-.63.78-1,.94-1.26v0a2.26,2.26,0,0,0,.2-.28c5.81-8.51,9.84-12.81,12-12.81.52,0,1.12.16,1.12,1.42,0,1.85-2.46,6.81-7.33,14.73L223.41,95.6l.52,0c.84-.06,3.42-.23,3.63-.23s1.56.07,3.7.23l.17,0,.08-.15c3.86-6.6,6.6-11,8.17-13.16a40.15,40.15,0,0,1,5.46-5.93,14.88,14.88,0,0,0-.51,3.49c0,3.67,1.63,5.53,4.83,5.53,2.76,0,5.71-1.72,8.79-5.13,1.83-2,2.75-3.09,3.21-3.71l0,0a3.77,3.77,0,0,0,.52-.63c7.38-10.59,10.53-12.81,11.86-12.81.53,0,1.23.16,1.23,1.53,0,2.06-2.66,7.36-7.93,15.75L257.5,95.63l.57-.07a30.4,30.4,0,0,1,3.92-.23c.38,0,1.54.07,3.52.23l.17,0,.08-.15c12-21.48,21.05-32.37,26.76-32.37,1.57,0,2.31.69,2.31,2.19,0,1.27-1.62,4.3-4.81,9a89.47,89.47,0,0,0-5.81,9.19,11.7,11.7,0,0,0-1.14,5.11,7.89,7.89,0,0,0,1.9,5.33,6,6,0,0,0,4.73,2.19c2.84,0,6.58-2.82,11.44-8.62,1.41-1.69,2.6-3.14,3.6-4.37a15.63,15.63,0,0,0-.32,3.14,11,11,0,0,0,2.22,7,6.85,6.85,0,0,0,5.55,2.82c2.06,0,4.19-1,6.35-3a70,70,0,0,0,7.76-9.36,14,14,0,0,0-.95,4.85,8,8,0,0,0,1.81,5.36,5.91,5.91,0,0,0,4.71,2.16c2.83,0,6.54-2.82,11.36-8.62q1.71-2,3-3.58a13.34,13.34,0,0,0-1.06,4.8,7.46,7.46,0,0,0,2,5.28A6.43,6.43,0,0,0,352,96.1c3.49,0,8.34-4.08,14.74-12.47a14.32,14.32,0,0,0-1.35,5.19,7.32,7.32,0,0,0,2,5.19,6.47,6.47,0,0,0,4.9,2.09c3.85,0,9.12-4.55,16.09-13.91a13.61,13.61,0,0,0-.46,3.57A10.76,10.76,0,0,0,390.53,93a8.08,8.08,0,0,0,6.34,3.06c4.67,0,9.71-3.75,15-11.14a7.86,7.86,0,0,0,3.21.65c3,0,6.36-1.8,9.92-5.34.47-.47.88-.9,1.23-1.27.21-.21.4-.42.56-.6h0l.16-.18q.29-.31.51-.6l.06-.06c.23-.28.53-.65.89-1.11h0l.44-.56c.5-.73,1-1.41,1.46-2.05l0,0,0,0h0c6.31-8.77,9.11-10.68,10.35-10.68.58,0,1.24.18,1.24,1.53,0,2.06-2.66,7.36-7.94,15.75l-9.65,15.29.56-.07a30.56,30.56,0,0,1,3.93-.23c.38,0,1.56.07,3.51.23l.17,0,.08-.15c12-21.48,21-32.37,26.76-32.37,1.57,0,2.31.69,2.31,2.19,0,1.27-1.62,4.29-4.81,9a93.34,93.34,0,0,0-5.81,9.19,11.69,11.69,0,0,0-1.13,5.11,7.79,7.79,0,0,0,1.9,5.33,6,6,0,0,0,4.73,2.19c2.83,0,6.57-2.82,11.42-8.62,1.42-1.69,2.61-3.14,3.6-4.37a16.38,16.38,0,0,0-.3,3.14,11.12,11.12,0,0,0,2.21,7A6.88,6.88,0,0,0,479,96.1c2.06,0,4.19-1,6.35-3a70.82,70.82,0,0,0,7.76-9.36,14.24,14.24,0,0,0-.94,4.85,8.09,8.09,0,0,0,1.8,5.36,5.89,5.89,0,0,0,4.71,2.16c2.83,0,6.54-2.82,11.36-8.62,1.32-1.56,2.45-2.92,3.41-4.09A14.37,14.37,0,0,0,512.34,89a7.6,7.6,0,0,0,1.73,5.11,5.53,5.53,0,0,0,4.43,2c3.72,0,9.28-5.16,17-15.78L538,76.81c.46-.47.68-.82.68-1.15a.58.58,0,0,0-.43-.62h-.07a1.05,1.05,0,0,0-.94.71c-8.88,12.56-15,18.93-18.29,18.93-1.38,0-2-.78-2-2.43s1.39-4.79,4.14-9.66,12.64-21.48,29.35-49.28" transform="translate(-14.7 -14.51)"/><path class="cls-1" d="M427.44,77.62c-.23.28-.4.47-.51.59l.51-.59" transform="translate(-14.7 -14.51)"/><path class="cls-1" d="M430.3,73.82c-.16.24-.67,1-1.46,2,.5-.71,1-1.4,1.46-2" transform="translate(-14.7 -14.51)"/></svg>