<svg width="78" height="20" viewBox="0 0 78 20" xmlns="http://www.w3.org/2000/svg"><title>Group 3</title><g fill="none" fill-rule="evenodd"><g fill="#AB8F07"><path d="M48.96 5.76V1.99a.246.246 0 0 0-.242-.25h-2.964V.475a.246.246 0 0 0-.243-.25H33.48a.246.246 0 0 0-.243.25V1.74h-2.955a.246.246 0 0 0-.243.25v3.77c-.002.077-.001.714.463 1.426.426.655 1.346 1.507 3.306 1.888.586.876 1.566 1.453 2.676 1.454.05.003 1.016.077 1.077 2.282a1.13 1.13 0 0 0-.86 1.105c0 .54.37.993.863 1.107v1.159h-2.658a.246.246 0 0 0-.243.25v.916h-.954a.246.246 0 0 0-.243.25v1.928c0 .137.109.249.243.249H45.29a.246.246 0 0 0 .243-.25v-1.927a.246.246 0 0 0-.243-.25h-.955v-.917a.246.246 0 0 0-.243-.249h-2.665v-1.159a1.13 1.13 0 0 0 .86-1.107c0-.538-.367-.99-.857-1.105.06-2.182 1.005-2.277 1.074-2.282 1.11 0 2.09-.576 2.677-1.452 1.967-.38 2.889-1.234 3.316-1.89.464-.712.465-1.35.463-1.427zM30.925 6.935c-.41-.613-.4-1.159-.4-1.163V2.24h2.713v4.943c0 .466.093.91.261 1.313-1.203-.298-2.087-.832-2.574-1.56zM43.85 16.68v.917c0 .137.109.25.243.25h.954v1.428H33.952v-1.429h.954a.246.246 0 0 0 .243-.25v-.916h2.657a.246.246 0 0 0 .243-.25v-1.38h2.893v1.38c0 .138.109.25.243.25h2.666zm-2.048-2.765a.628.628 0 0 1-.618.636h-3.379a.628.628 0 0 1-.618-.636c0-.35.277-.635.618-.635h3.38c.34 0 .617.285.617.635zm-.857-1.134h-2.9c-.037-1.194-.33-1.87-.653-2.252h4.205c-.323.382-.616 1.058-.652 2.252zm1.558-2.751h-6.016c-1.525-.001-2.765-1.278-2.765-2.848V.725h11.546v6.458c0 1.57-1.24 2.847-2.765 2.847zm2.988-1.531c.17-.405.263-.85.263-1.316V2.24h2.72v3.533c.001.021.044 1.982-2.983 2.726z"/><path d="M34.914 1.74a.246.246 0 0 0-.243.25v3.798c0 .138.108.25.243.25a.246.246 0 0 0 .242-.25V1.99a.246.246 0 0 0-.242-.25zm0 4.842a.246.246 0 0 0-.243.25v.898c0 .137.108.249.243.249a.246.246 0 0 0 .242-.25v-.898a.246.246 0 0 0-.242-.25z"/></g><path d="M77.96 5.76V1.99a.246.246 0 0 0-.242-.25h-2.964V.475a.246.246 0 0 0-.243-.25H62.48a.246.246 0 0 0-.243.25V1.74h-2.955a.246.246 0 0 0-.243.25v3.77c-.002.077-.001.714.463 1.426.426.655 1.346 1.507 3.306 1.888.586.876 1.566 1.453 2.676 1.454.05.003 1.016.077 1.077 2.282a1.13 1.13 0 0 0-.86 1.105c0 .54.37.993.863 1.107v1.159h-2.658a.246.246 0 0 0-.243.25v.916h-.954a.246.246 0 0 0-.243.25v1.928c0 .137.109.249.243.249H74.29a.246.246 0 0 0 .243-.25v-1.927a.246.246 0 0 0-.243-.25h-.955v-.917a.246.246 0 0 0-.243-.249h-2.665v-1.159a1.13 1.13 0 0 0 .86-1.107c0-.538-.367-.99-.857-1.105.06-2.182 1.005-2.277 1.074-2.282 1.11 0 2.09-.576 2.677-1.452 1.967-.38 2.889-1.234 3.316-1.89.464-.712.465-1.35.463-1.427zM59.925 6.935c-.41-.613-.4-1.159-.4-1.163V2.24h2.713v4.943c0 .466.093.91.261 1.313-1.203-.298-2.087-.832-2.574-1.56zM72.85 16.68v.917c0 .137.109.25.243.25h.954v1.428H62.952v-1.429h.954a.246.246 0 0 0 .243-.25v-.916h2.657a.246.246 0 0 0 .243-.25v-1.38h2.893v1.38c0 .138.109.25.243.25h2.666zm-2.048-2.765a.628.628 0 0 1-.618.636h-3.379a.628.628 0 0 1-.618-.636c0-.35.277-.635.618-.635h3.38c.34 0 .617.285.617.635zm-.857-1.134h-2.9c-.037-1.194-.33-1.87-.653-2.252h4.205c-.323.382-.616 1.058-.652 2.252zm1.558-2.751h-6.016c-1.525-.001-2.765-1.278-2.765-2.848V.725h11.546v6.458c0 1.57-1.24 2.847-2.765 2.847zm2.988-1.531c.17-.405.263-.85.263-1.316V2.24h2.72v3.533c.001.021.044 1.982-2.983 2.726z" fill="#9B9B9B"/><path d="M63.914 1.74a.246.246 0 0 0-.243.25v3.798c0 .138.108.25.243.25a.246.246 0 0 0 .242-.25V1.99a.246.246 0 0 0-.242-.25zm0 4.842a.246.246 0 0 0-.243.25v.898c0 .137.108.249.243.249a.246.246 0 0 0 .242-.25v-.898a.246.246 0 0 0-.242-.25z" fill="#9B9B9B"/><path d="M18.96 5.76V1.99a.246.246 0 0 0-.242-.25h-2.964V.475a.246.246 0 0 0-.243-.25H3.48a.246.246 0 0 0-.243.25V1.74H.282a.246.246 0 0 0-.243.25v3.77c-.002.077-.001.714.463 1.426.426.655 1.346 1.507 3.306 1.888.586.876 1.566 1.453 2.676 1.454.05.003 1.016.077 1.077 2.282a1.13 1.13 0 0 0-.86 1.105c0 .54.37.993.863 1.107v1.159H4.906a.246.246 0 0 0-.243.25v.916h-.954a.246.246 0 0 0-.243.25v1.928c0 .137.109.249.243.249H15.29a.246.246 0 0 0 .243-.25v-1.927a.246.246 0 0 0-.243-.25h-.955v-.917a.246.246 0 0 0-.243-.249h-2.665v-1.159a1.13 1.13 0 0 0 .86-1.107c0-.538-.367-.99-.857-1.105.06-2.182 1.005-2.277 1.074-2.282 1.11 0 2.09-.576 2.677-1.452 1.967-.38 2.889-1.234 3.316-1.89.464-.712.465-1.35.463-1.427zM.925 6.935c-.41-.613-.4-1.159-.4-1.163V2.24h2.713v4.943c0 .466.093.91.261 1.313-1.203-.298-2.087-.832-2.574-1.56zM13.85 16.68v.917c0 .137.109.25.243.25h.954v1.428H3.952v-1.429h.954a.246.246 0 0 0 .243-.25v-.916h2.657a.246.246 0 0 0 .243-.25v-1.38h2.893v1.38c0 .138.109.25.243.25h2.666zm-2.048-2.765a.628.628 0 0 1-.618.636H7.806a.628.628 0 0 1-.618-.636c0-.35.277-.635.618-.635h3.38c.34 0 .617.285.617.635zm-.857-1.134h-2.9c-.037-1.194-.33-1.87-.653-2.252h4.205c-.323.382-.616 1.058-.652 2.252zm1.558-2.751H6.487c-1.525-.001-2.765-1.278-2.765-2.848V.725h11.546v6.458c0 1.57-1.24 2.847-2.765 2.847zm2.988-1.531c.17-.405.263-.85.263-1.316V2.24h2.72v3.533c.001.021.044 1.982-2.983 2.726z" fill="#F6A623"/><path d="M4.914 1.74a.246.246 0 0 0-.243.25v3.798c0 .138.108.25.243.25a.246.246 0 0 0 .242-.25V1.99a.246.246 0 0 0-.242-.25zm0 4.842a.246.246 0 0 0-.243.25v.898c0 .137.108.249.243.249a.246.246 0 0 0 .242-.25v-.898a.246.246 0 0 0-.242-.25z" fill="#F6A623"/></g>
  <view id="icon1" viewBox="0 0 19 20"/>
  <view id="icon2" viewBox="29.5 0 19 20"/>
  <view id="icon3" viewBox="59 0 19 20"/>
</svg>